<svg width="123" height="29" viewBox="0 0 123 29" fill="none" xmlns="http://www.w3.org/2000/svg">
<path d="M18.6777 17.5361H12.3818V2.75H10.208V19.71H18.6777V17.5361ZM16.2988 0.904297C17.6797 0.904297 18.9307 1.10938 20.0518 1.51953C21.1729 1.92969 22.123 2.49023 22.9023 3.20117C23.6953 3.91211 24.3037 4.74609 24.7275 5.70312C25.1514 6.64648 25.3633 7.65137 25.3633 8.71777V21.1865C25.3633 22.2529 25.1514 23.2646 24.7275 24.2217C24.3037 25.165 23.6953 25.9922 22.9023 26.7031C22.123 27.4141 21.1729 27.9746 20.0518 28.3848C18.9307 28.7949 17.6797 29 16.2988 29H9.98242C8.60156 29 7.35059 28.7949 6.22949 28.3848C5.1084 27.9746 4.15137 27.4141 3.3584 26.7031C2.5791 25.9922 1.97754 25.165 1.55371 24.2217C1.12988 23.2646 0.917969 22.2529 0.917969 21.1865V8.71777C0.917969 7.65137 1.12988 6.64648 1.55371 5.70312C1.97754 4.74609 2.5791 3.91211 3.3584 3.20117C4.15137 2.49023 5.1084 1.92969 6.22949 1.51953C7.35059 1.10938 8.60156 0.904297 9.98242 0.904297H16.2988ZM40.5801 0.904297C41.9609 0.904297 43.2119 1.10938 44.333 1.51953C45.4541 1.92969 46.4043 2.49023 47.1836 3.20117C47.9766 3.91211 48.585 4.74609 49.0088 5.70312C49.4326 6.64648 49.6445 7.65137 49.6445 8.71777V21.1865C49.6445 22.2529 49.4326 23.2646 49.0088 24.2217C48.585 25.165 47.9766 25.9922 47.1836 26.7031C46.4043 27.4141 45.4541 27.9746 44.333 28.3848C43.2119 28.7949 41.9609 29 40.5801 29H34.2637C32.8828 29 31.6318 28.7949 30.5107 28.3848C29.3896 27.9746 28.4326 27.4141 27.6396 26.7031C26.8604 25.9922 26.2588 25.165 25.835 24.2217C25.4111 23.2646 25.1992 22.2529 25.1992 21.1865V8.71777C25.1992 7.65137 25.4111 6.64648 25.835 5.70312C26.2588 4.74609 26.8604 3.91211 27.6396 3.20117C28.4326 2.49023 29.3896 1.92969 30.5107 1.51953C31.6318 1.10938 32.8828 0.904297 34.2637 0.904297H40.5801ZM44.8047 6.07227L44.5176 4.34961L43.2256 3.03711L41.1133 2.75H35.6172L33.5254 3.03711L32.2129 4.34961L31.9668 6.07227V16.4082L32.2129 18.1719L33.5664 19.4639L35.6172 19.71H41.1133L43.2256 19.4639L44.5176 18.1719L44.8047 16.4082V6.07227ZM42.3438 17.3311L40.9902 17.5361H35.7402L34.4072 17.3311L34.0996 16.1006V6.27734L34.3047 5.14941L35.7402 4.92383H40.9902L42.4258 5.14941L42.6309 6.35938V16.1826L42.3438 17.3311ZM64.5947 2.75H59.6523L57.54 2.99609L56.248 4.30859L55.9404 6.03125V16.4492L56.248 18.1719L57.5811 19.4639L59.6523 19.71H64.5947L66.9941 19.4229L66.4814 17.208L64.5537 17.5361H59.7754L58.4219 17.3311L58.1348 16.1006V6.23633L58.3398 5.1084L59.7754 4.88281H64.4717L66.584 5.23145L66.9941 3.03711L64.5947 2.75ZM64.8613 0.904297C66.2422 0.904297 67.4932 1.10938 68.6143 1.51953C69.7354 1.92969 70.6855 2.49023 71.4648 3.20117C72.2578 3.91211 72.8662 4.74609 73.29 5.70312C73.7139 6.64648 73.9258 7.65137 73.9258 8.71777V21.1865C73.9258 22.2529 73.7139 23.2646 73.29 24.2217C72.8662 25.165 72.2578 25.9922 71.4648 26.7031C70.6855 27.4141 69.7354 27.9746 68.6143 28.3848C67.4932 28.7949 66.2422 29 64.8613 29H58.5449C57.1641 29 55.9131 28.7949 54.792 28.3848C53.6709 27.9746 52.7139 27.4141 51.9209 26.7031C51.1416 25.9922 50.54 25.165 50.1162 24.2217C49.6924 23.2646 49.4805 22.2529 49.4805 21.1865V8.71777C49.4805 7.65137 49.6924 6.64648 50.1162 5.70312C50.54 4.74609 51.1416 3.91211 51.9209 3.20117C52.7139 2.49023 53.6709 1.92969 54.792 1.51953C55.9131 1.10938 57.1641 0.904297 58.5449 0.904297H64.8613ZM89.1426 0.904297C90.5234 0.904297 91.7744 1.10938 92.8955 1.51953C94.0166 1.92969 94.9668 2.49023 95.7461 3.20117C96.5391 3.91211 97.1475 4.74609 97.5713 5.70312C97.9951 6.64648 98.207 7.65137 98.207 8.71777V21.1865C98.207 22.2529 97.9951 23.2646 97.5713 24.2217C97.1475 25.165 96.5391 25.9922 95.7461 26.7031C94.9668 27.4141 94.0166 27.9746 92.8955 28.3848C91.7744 28.7949 90.5234 29 89.1426 29H82.8262C81.4453 29 80.1943 28.7949 79.0732 28.3848C77.9521 27.9746 76.9951 27.4141 76.2021 26.7031C75.4229 25.9922 74.8213 25.165 74.3975 24.2217C73.9736 23.2646 73.7617 22.2529 73.7617 21.1865V8.71777C73.7617 7.65137 73.9736 6.64648 74.3975 5.70312C74.8213 4.74609 75.4229 3.91211 76.2021 3.20117C76.9951 2.49023 77.9521 1.92969 79.0732 1.51953C80.1943 1.10938 81.4453 0.904297 82.8262 0.904297H89.1426ZM91.0293 19.71H93.3672L91.7471 4.43164L90.4756 3.16016L87.748 2.75H85.5537L82.8262 3.16016L81.5752 4.43164L79.8936 19.71H82.334L82.6621 15.3418L82.8672 13.4551H90.4346L90.6396 15.3418L91.0293 19.71ZM89.5938 5.23145C89.6895 6.33887 89.7988 7.38477 89.9219 8.36914C90.0449 9.35352 90.1611 10.3926 90.2705 11.4863H83.0518L83.667 5.23145C84.0498 5.19043 84.3779 5.14258 84.6514 5.08789C84.9385 5.0332 85.2734 4.97852 85.6562 4.92383H87.666L89.5938 5.23145ZM115.803 17.5361H109.507V2.75H107.333V19.71H115.803V17.5361ZM113.424 0.904297C114.805 0.904297 116.056 1.10938 117.177 1.51953C118.298 1.92969 119.248 2.49023 120.027 3.20117C120.82 3.91211 121.429 4.74609 121.853 5.70312C122.276 6.64648 122.488 7.65137 122.488 8.71777V21.1865C122.488 22.2529 122.276 23.2646 121.853 24.2217C121.429 25.165 120.82 25.9922 120.027 26.7031C119.248 27.4141 118.298 27.9746 117.177 28.3848C116.056 28.7949 114.805 29 113.424 29H107.107C105.727 29 104.476 28.7949 103.354 28.3848C102.233 27.9746 101.276 27.4141 100.483 26.7031C99.7041 25.9922 99.1025 25.165 98.6787 24.2217C98.2549 23.2646 98.043 22.2529 98.043 21.1865V8.71777C98.043 7.65137 98.2549 6.64648 98.6787 5.70312C99.1025 4.74609 99.7041 3.91211 100.483 3.20117C101.276 2.49023 102.233 1.92969 103.354 1.51953C104.476 1.10938 105.727 0.904297 107.107 0.904297H113.424Z" fill="black"/>
</svg>
